<?xml version="1.0" encoding="UTF-8"?> <svg xmlns="http://www.w3.org/2000/svg" id="Layer_1" data-name="Layer 1" viewBox="0 0 120 135"><defs><style>.cls-1{fill:#2f363a;}.cls-2{fill:#fff;}</style></defs><title>01_INSTANA_IconSet</title><path class="cls-1" d="M52,4.64,9.56,29.15A16,16,0,0,0,1.57,43V92a16,16,0,0,0,8,13.84L52,130.36a16,16,0,0,0,16,0l42.45-24.51a16,16,0,0,0,8-13.84V43a16,16,0,0,0-8-13.84L68,4.64A16,16,0,0,0,52,4.64Z"></path><path class="cls-2" d="M37.46,45.12v44.8H31.68V45.12Z"></path><path class="cls-2" d="M53.36,45.12v44.8H47.58V45.12Z"></path><path class="cls-2" d="M62.66,82.88A20.55,20.55,0,0,0,73,85.81c5.91,0,9.37-3.13,9.37-7.65,0-4.18-2.39-6.58-8.44-8.9-7.31-2.59-11.83-6.38-11.83-12.69,0-7,5.78-12.17,14.49-12.17a20.38,20.38,0,0,1,9.91,2.2l-1.6,4.7a17.86,17.86,0,0,0-8.52-2.12c-6.12,0-8.44,3.65-8.44,6.71,0,4.19,2.72,6.26,8.91,8.65,7.58,2.92,11.43,6.58,11.43,13.16,0,6.91-5.12,12.9-15.69,12.9-4.33,0-9-1.26-11.43-2.86Z"></path></svg> 